P1
152 112
1001101010010110011001100110101010100110010101100101010110011010100110
1001100110101001100101101001101001011010010101010101101010011001101010
100101101010
0110010101101001100110011001010101011001101010011010101001100101011001
0110011001010110011010010110010110100101101010101010010101100110010101
011010010101
0110100110010110100101100110101010100110011010100101101001101001100110
0101010101100101100101011010101001100101011001011001100110011001100101
101010101010
1001011001101001011010011001010101011001100101011010010110010110011001
1010101010011010011010100101010110011010100110100110011001100110011010
010101010101
0101100101010110101001011001100110011001011010010101101001101001100110
1001101010101001101010101010101010100101101001100110011001010101100110
101001101001
1010011010101001010110100110011001100110100101101010010110010110011001
0110010101010110010101010101010101011010010110011001100110101010011001
010110010110
0110100101100101011010011001010110011001011010100101101010011001101010
0110010110100101011010100110010101100110010101101010100110011010101001
101001101010
1001011010011010100101100110101001100110100101011010010101100110010101
1001101001011010100101011001101010011001101010010101011001100101010110
010110010101
0110010110010110010101101001100110100101010101010110101010100101011010
0101010110010101010110100110100101101010011001100101011010100110010101
101001011010
1001101001101001101010010110011001011010101010101001010101011010100101
1010101001101010101001011001011010010101100110011010100101011001101010
010110100101
0101101001011001010101101001010101101001011010101001011001011010101001
1001011001010110010110011010010110101001010110011010100101010101011001
100101010110
1010010110100110101010010110101010010110100101010110100110100101010110
0110100110101001101001100101101001010110101001100101011010101010100110
011010101001
0110101010101001100110101010100101101010010101100110101001010101101001
0110101001100101101010100101101010101001101010011010101010101010011010
101010100110
1001010101010110011001010101011010010101101010011001010110101010010110
1001010110011010010101011010010101010110010101100101010101010101100101
010101011001
0101101010100110101010011001101010100101100110011001010101010110101010
0101100101101001011010100101101010101001100101100110100101101010011010
010110101001
1010010101011001010101100110010101011010011001100110101010101001010101
1010011010010110100101011010010101010110011010011001011010010101100101
101001010110
0101101001101001010110101010011010010101011010101010010101101010010110
0110100101100110101010010101011001010110010101011010011001010101010110
100101011010
1010010110010110101001010101100101101010100101010101101010010101101001
1001011010011001010101101010100110101001101010100101100110101010101001
011010100101
0110011001101001101001011010101010011001100110010101010110011010011001
0110011001101010101001011010011001011001011010010110010110011001101010
011010100101
1001100110010110010110100101010101100110011001101010101001100101100110
1001100110010101010110100101100110100110100101101001101001100110010101
100101011010
0110101010101010010101010101011010100101010110010101101001101001011010
0110101010011010010101100110010110100110100110010110011001010101100110
100110100110
1001010101010101101010101010100101011010101001101010010110010110100101
1001010101100101101010011001101001011001011001101001100110101010011001
011001011001
1001011001010101010101100101011010101010010110011001011010101001101010
0110010101100110101010101010101010100110100101011010100110010110010101
010110100110
0110100110101010101010011010100101010101101001100110100101010110010101
1001101010011001010101010101010101011001011010100101011001101001101010
101001011001
1010010110101001101010101001101010100101100101010101100101101001101001
0101011001100110100101010101100101100101011001010101100110101001011010
011001101010
0101101001010110010101010110010101011010011010101010011010010110010110
1010100110011001011010101010011010011010100110101010011001010110100101
100110010101
0110101001011001100101100110100110010101100101100101100101010110101010
0101010110101001010101101001100110010101101010100101011010010101011010
010101011010
1001010110100110011010011001011001101010011010011010011010101001010101
1010101001010110101010010110011001101010010101011010100101101010100101
101010100101
1001101001100101011010011010011010011010100101011001100110011001101010
1010010110011001011001011001011010011001100110101001100110010101101001
101001100101
0110010110011010100101100101100101100101011010100110011001100110010101
0101101001100110100110100110100101100110011001010110011001101010010110
010110011010
0101101001101001101001101010101001101001100101011001010101010101100101
0110101001011010100101100101011010100101010101011010101010101010011001
101010101001
1010010110010110010110010101010110010110011010100110101010101010011010
1001010110100101011010011010100101011010101010100101010101010101100110
010101010110
1001100110101001100110011001100110100101101010010101010110100110101010
1001100101101001011001100110101010100101010101010110011010010101100101
101001100101
0110011001010110011001100110011001011010010101101010101001011001010101
0110011010010110100110011001010101011010101010101001100101101010011010
010110011010
0101100101011010011001101001100110010101100110101001100101100110011010
0101010101010110101001011010011010100101101001100101011001100101011001
011010011001
1010011010100101100110010110011001101010011001010110011010011001100101
1010101010101001010110100101100101011010010110011010100110011010100110
100101100110
1001101001010101100110101001100110011010011001100110011001011010010101
0101011010100110011010100101100101011001011001101010101010011010010110
010110101001
0110010110101010011001010110011001100101100110011001100110100101101010
1010100101011001100101011010011010100110100110010101010101100101101001
101001010110
1010101001010101101010101001011001011010010101011010100101011001101001
1001010101101001100110010110101010100101011010010110010110100110101010
011001011010
0101010110101010010101010110100110100101101010100101011010100110010110
0110101010010110011001101001010101011010100101101001101001011001010101
100110100101
1001011010100101101010010101100101101001010101100101100110100101011001
0101010110101001100101011010011001100101100110011010100101010101010101
100110100110
0110100101011010010101101010011010010110101010011010011001011010100110
1010101001010110011010100101100110011010011001100101011010101010101010
011001011001
1001011001101001011010101010100101101001101001100101010101011010010101
1010101001011010010110100110101001101010011010011010100101101001100101
011010011001
0110100110010110100101010101011010010110010110011010101010100101101010
0101010110100101101001011001010110010101100101100101011010010110011010
100101100110
0101101001010110011010011010100101011010011010011010011010010101010101
1001010101011010101010010101010101100110101010101001010110010101010110
101001011010
1010010110101001100101100101011010100101100101100101100101101010101010
0110101010100101010101101010101010011001010101010110101001101010101001
010110100101
1010011010100110101010101001101010010101011001101010011010100101010101
0110010101100110011001011001010101010110100110010101100110100110011010
101010100101
0101100101011001010101010110010101101010100110010101100101011010101010
1001101010011001100110100110101010101001011001101010011001011001100101
010101011010
0110101001100101101001010101010101100110011001011010011010101010011010
1001101010100101010101101001101001010101011010100101011010101001101010
100110100101
1001010110011010010110101010101010011001100110100101100101010101100101
0110010101011010101010010110010110101010100101011010100101010110010101
011001011010
0110010110010110011001010110100101011010101010011010101010011001011010
1001101001100110101010101010100110010101101001010110010110010110010110
101010010110
1001101001101001100110101001011010100101010101100101010101100110100101
0110010110011001010101010101011001101010010110101001101001101001101001
010101101001
1001101010010110010110101001101010101001100110101010100110011001011001
0110101001011001010110101010010101101010101001100110100101011010101010
101001011010
0110010101101001101001010110010101010110011001010101011001100110100110
1001010110100110101001010101101010010101010110011001011010100101010101
010110100101
0110101001101010010101011010011010011001010110101001010101101001101001
1001100110011010101010010101010101101010100101101001100110010110010101
010110100101
1001010110010101101010100101100101100110101001010110101010010110010110
0110011001100101010101101010101010010101011010010110011001101001101010
101001011010
1010100110010101100110011010101001101001100110100110011010010110010110
0101011001101001010110100101011001100110100101101001100110011010010110
101001101001
0101011001101010011001100101010110010110011001011001100101101001101001
1010100110010110101001011010100110011001011010010110011001100101101001
010110010110
0110101001011010101001101010010110101001101001100101101010010101011010
0110101001010101100110100101100110101010011001100110101010101001100101
010110010110
1001010110100101010110010101101001010110010110011010010101101010100101
1001010110101010011001011010011001010101100110011001010101010110011010
101001101001
1001101010101010101010011001011001011010101001100101011010100101100101
1001100110011010010101011010101001101010100101011010100101010101100101
010101011010
0110010101010101010101100110100110100101010110011010100101011010011010
0110011001100101101010100101010110010101011010100101011010101010011010
101010100101
1010010101101010100110010101010110011001011010010101101010010101011010
1010011001100110010110010110100110100101100110011001010110010101101010
010101101010
0101101010010101011001101010101001100110100101101010010101101010100101
0101100110011001101001101001011001011010011001100110101001101010010101
101010010101
0110101010011001101001101001100110011010100101010101100110010101011010
0101101010101010011010101001100110101001010110010101100110011001101010
100101011001
1001010101100110010110010110011001100101011010101010011001101010100101
1010010101010101100101010110011001010110101001101010011001100110010101
011010100110
0101100110011010100110101001100110100101100110101010100101011010011010
0110100101100101100101011010010110010101010110100110101001101010010110
100101100110
1010011001100101011001010110011001011010011001010101011010100101100101
1001011010011010011010100101101001101010101001011001010110010101101001
011010011001
0101100101100101100110011001101010010101011010011001101001011001011001
0101010101101010101001011010101001011001010101010101101010100101011001
100110011010
1010011010011010011001100110010101101010100101100110010110100110100110
1010101010010101010110100101010110100110101010101010010101011010100110
011001100101
0101100110101001100101011010100110101001011010011001011001011010010101
0110100101011001010110010101010110101001100101100101010110010110010101
011010011001
1010011001010110011010100101011001010110100101100110100110100101101010
1001011010100110101001101010101001010110011010011010101001101001101010
100101100110
0101011001101010101010100110100101101010100101100101101010101001101001
1001010101010110010110101001011010100110100101011001011001101001101001
010101010101
1010100110010101010101011001011010010101011010011010010101010110010110
0110101010101001101001010110100101011001011010100110100110010110010110
101010101010
0110010101010110100101010110010110101010010101100101100101010110011001
0110011010011010100110010110011010010110100101100101010110010110101001
010101101010
1001101010101001011010101001101001010101101010011010011010101001100110
1001100101100101011001101001100101101001011010011010101001101001010110
101010010101
0101100101101001101010010101100101100101011010011001011001101010101010
1001101001100101101010010110010101100110101010100101101001010110100101
101001011010
1010011010010110010101101010011010011010100101100110100110010101010101
0110010110011010010101101001101010011001010101011010010110101001011010
010110100101
0110101001011010011001100110101010101001101010101010011010011010010101
0110100101010110010110101001010110101001010110010101011001010110100101
101010010110
1001010110100101100110011001010101010110010101010101100101100101101010
1001011010101001101001010110101001010110101001101010100110101001011010
010101101001
0110010110010110011001011010101010100101101010101001011010100110011010
1001011010011001101001100110100101101001101001010101101010011010101001
010101101010
1001101001101001100110100101010101011010010101010110100101011001100101
0110100101100110010110011001011010010110010110101010010101100101010110
101010010101
1010100110011001011010011001011010101001101010010101101001011001011010
1010010110011010100110101010101001011001101010011001101001100110101001
011001011001
0101011001100110100101100110100101010110010101101010010110100110100101
0101101001100101011001010101010110100110010101100110010110011001010110
100110100110
0110100101010110100110101010100110011001010101011010010110010110101010
0101011010100110100110010110010110101001011001010110100101010110101010
100110101001
1001011010101001011001010101011001100110101010100101101001101001010101
1010100101011001011001101001101001010110100110101001011010101001010101
011001010110
1001010101100110100110010110011010010101100101011010100101011010010101
1010100101100110010101011010100101010101101001011010010101011010100101
011001100101
0110101010011001011001101001100101101010011010100101011010100101101010
0101011010011001101010100101011010101010010110100101101010100101011010
100110011010
1001011001011001010101010101100110010110100110100110101010100110011001
0101100110100110011001010110100101101010010110011001010101011010010110
100101100101
0110100110100110101010101010011001101001011001011001010101011001100110
1010011001011001100110101001011010010101101001100110101010100101101001
011010011010
0110101010100101010110101010101001010110100110010110010110011010010110
1010100101101001011001010101101001101001011010010110100101011010011010
010110101010
1001010101011010101001010101010110101001011001101001101001100101101001
0101011010010110100110101010010110010110100101101001011010100101100101
101001010101
1001100110101010100110101001101001011010010110100101010110101010101001
1010101001011001100101011001010101101001011001011001010101101001100110
011010010101
0110011001010101011001010110010110100101101001011010101001010101010110
0101010110100110011010100110101010010110100110100110101010010110011001
100101101010
0110101010101001100101100110010110100110011001100110010110100101010110
0101101010100101011010011001100101101010100101010110100110100110101010
010110100101
1001010101010110011010011001101001011001100110011001101001011010101001
1010010101011010100101100110011010010101011010101001011001011001010101
101001011010
0110100110011001011001101010100101010110010110011001010110101001101010
1010010110010101100101010110100110100110010101100101010110101010100110
100101010101
1001011001100110100110010101011010101001101001100110101001010110010101
0101101001101010011010101001011001011001101010011010101001010101011001
011010101010
0110101001011010011001010101010101010101010101101010011001010101101001
1010011010011001011001100110011001010110010110010101011010010110010101
010101011001
1001010110100101100110101010101010101010101010010101100110101010010110
0101100101100110100110011001100110101001101001101010100101101001101010
101010100110
1001100110100110100110010110010101101001101001010101101010011001101010
0110011010011010011010011010011001010110011001101001101010100110011010
101001010110
0110011001011001011001101001101010010110010110101010010101100110010101
1001100101100101100101100101100110101001100110010110010101011001100101
010110101001
0110101001100101101010100110010110100101010110101010100101010101101001
0110100101100101100101011001100110100110101001010110100110101010010101
011001010101
1001010110011010010101011001101001011010101001010101011010101010010110
1001011010011010011010100110011001011001010110101001011001010101101010
100110101010
1010011001010110011010010110011010100101011001010110010101101010011010
1010101001100110100110101001010110010101011010100101011010100101100110
011001101010
0101100110101001100101101001100101011010100110101001101010010101100101
0101010110011001011001010110101001101010100101011010100101011010011001
100110010101
0110101010101001011001010110011010010110011001101001100101011001011001
0101100101101001101010101010100101011010010101010110101001011001101001
010101100110
1001010101010110100110101001100101101001100110010110011010100110100110
1010011010010110010101010101011010100101101010101001010110100110010110
101010011001
0110011010010101010101010101010101100110100101011001101010010101101001
1001011001010101100110011010010110100101101010100110100110100101101001
101010010101
1001100101101010101010101010101010011001011010100110010101101010010110
0110100110101010011001100101101001011010010101011001011001011010010110
010101101010
1010101010100110010101100110011010101010010101101010100101010101101010
1010010110101010101010101001010110100101010101010101100110100101010110
011001100101
0101010101011001101010011001100101010101101010010101011010101010010101
0101101001010101010101010110101001011010101010101010011001011010101001
100110011010
